{"title":"Youngistaan (2014) - 1CD - DVDRip - Hindi - x264 - MP3 - Mafiaki","uid":11360648,"size":739840007,"categoryP":"video","categoryS":"movies","magnet":"?xt=urn:btih:39ad7405fae89f06bcaecebb1d76d991e4d96c26&amp;dn=Youngistaan+%282014%29+-+1CD+-+DVDRip+-+Hindi+-+x264+-+MP3+-+Mafiaki&amp;tr=udp%3A%2F%2Ftracker.openbittorrent.com%3A80&amp;tr=udp%3A%2F%2Fopen.demonii.com%3A1337&amp;tr=udp%3A%2F%2Ftracker.coppersurfer.tk%3A6969&amp;tr=udp%3A%2F%2Fexodus.desync.com%3A6969","seeders":6,"leechers":2,"uploader":"inovai","files":3,"time":1414992736,"description":"Youngistaan (2014) - 1CD - DVDRip - Hindi - x264 - MP3 - Mafiaking - Team TellyTNT ExClusive\n\nCover:\n &lt;a href=&quot;\nhttp://forum.primetimeshow.in/viewtopic.php?f=7&amp;t=805&quot; rel=&quot;nofollow&quot; target=&quot;_NEW&quot;&gt;\nhttp://forum.primetimeshow.in/viewtopic.php?f=7&amp;t=805&lt;/a&gt;\n\nRatings: 5.5/10\n\nGENRE: Drama\n\nScreenshots:\n &lt;a href=&quot;\nhttp://m.primetimeshow.in/share-3608_54570224.html&quot; rel=&quot;nofollow&quot; target=&quot;_NEW&quot;&gt;\nhttp://m.primetimeshow.in/share-3608_54570224.html&lt;/a&gt;\n &lt;a href=&quot;\nhttp://m.primetimeshow.in/share-9681_54570224.html&quot; rel=&quot;nofollow&quot; target=&quot;_NEW&quot;&gt;\nhttp://m.primetimeshow.in/share-9681_54570224.html&lt;/a&gt;\n &lt;a href=&quot;\nhttp://m.primetimeshow.in/share-3DEA_54570224.html&quot; rel=&quot;nofollow&quot; target=&quot;_NEW&quot;&gt;\nhttp://m.primetimeshow.in/share-3DEA_54570224.html&lt;/a&gt;\n &lt;a href=&quot;\nhttp://m.primetimeshow.in/share-9713_54570224.html&quot; rel=&quot;nofollow&quot; target=&quot;_NEW&quot;&gt;\nhttp://m.primetimeshow.in/share-9713_54570224.html&lt;/a&gt;\n &lt;a href=&quot;\nhttp://m.primetimeshow.in/share-23E0_54570224.html&quot; rel=&quot;nofollow&quot; target=&quot;_NEW&quot;&gt;\nhttp://m.primetimeshow.in/share-23E0_54570224.html&lt;/a&gt;\n\nGeneral\nUnique ID : 176926788508653448405751326535678038799 (0x851ADC28A70BEFED9F6E95375B9E130F)\nComplete name : Youngistaan (2014) - 1CD - DVDRip - Hindi - x264 - MP3 - Mafiaking - Team TellyTNT ExClusive.mkv\nFormat : Matroska\nFormat version : Version 4 / Version 2\nFile size : 696 MiB\nDuration : 2h 10mn\nOverall bit rate : 748 Kbps\nMovie name : Youngistaan (2014) - 1CD - DVDRip - Hindi - x264 - MP3 - Mafiaking - Team TellyTNT ExClusive\nEncoded date : UTC 2014-11-01 18:44:04\nWriting application : mkvmerge v7.0.0 ('Where We Going') 64bit built on Jun 9 2014 15:16:27\nWriting library : libebml v1.3.0 + libmatroska v1.4.1\n\n\nVideo\nID : 1\nFormat : AVC\nFormat/Info : Advanced Video Codec\nFormat profile : &lt;a class=&quot;__cf_email__&quot; href=&quot;/cdn-cgi/l/email-protection&quot; data-cfemail=&quot;430b2a242b030f776d72&quot;&gt;[email&amp;#160;protected]&lt;/a&gt;&lt;script cf-hash='f9e31' type=&quot;text/javascript&quot;&gt;\n/* &lt;![CDATA[ */!function(){try{var t=&quot;currentScript&quot;in document?document.currentScript:function(){for(var t=document.getElementsByTagName(&quot;script&quot;),e=t.length;e--;)if(t[e].getAttribute(&quot;cf-hash&quot;))return t[e]}();if(t&amp;&amp;t.previousSibling){var e,r,n,i,c=t.previousSibling,a=c.getAttribute(&quot;data-cfemail&quot;);if(a){for(e=&quot;&quot;,r=parseInt(a.substr(0,2),16),n=2;a.length-n;n+=2)i=parseInt(a.substr(n,2),16)^r,e+=String.fromCharCode(i);e=document.createTextNode(e),c.parentNode.replaceChild(e,c)}}}catch(u){}}();/* ]]&gt; */&lt;/script&gt;\nFormat settings, CABAC : Yes\nFormat settings, ReFrames : 4 frames\nCodec ID : V_MPEG4/ISO/AVC\nDuration : 2h 10mn\nBit rate : 650 Kbps\nWidth : 640 pixels\nHeight : 272 pixels\nDisplay aspect ratio : 2.35:1\nFrame rate mode : Constant\nFrame rate : 23.976 fps\nColor space : YUV\nChroma subsampling : 4:2:0\nBit depth : 8 bits\nScan type : Progressive\nBits/(Pixel*Frame) : 0.156\nStream size : 593 MiB (85%)\nTitle : Mafiaking\nWriting library : x264 core 142 r2431 ac76440\nLanguage : Hindi\nDefault : Yes\nForced : No\n\n\nAudio\nID : 2\nFormat : MPEG Audio\nFormat version : Version 1\nFormat profile : Layer 3\nMode : Joint stereo\nMode extension : MS Stereo\nCodec ID : A_MPEG/L3\nCodec ID/Hint : MP3\nDuration : 2h 10mn\nBit rate mode : Constant\nBit rate : 96.0 Kbps\nChannel(s) : 2 channels\nSampling rate : 32.0 KHz\nCompression mode : Lossy\nStream size : 89.3 MiB (13%)\nTitle : Mafiaking\nWriting library : LAME3.99r\nLanguage : Hindi\nDefault : Yes\nForced : No\n\nSAMPLE WITH IN TORRENT\n\nThanks to Mafiaking - Team TellyTNT!!\n\nSeed n Enjoy!!","torrent":{"xt":"urn:btih:39ad7405fae89f06bcaecebb1d76d991e4d96c26","amp;dn":"Youngistaan+%282014%29+-+1CD+-+DVDRip+-+Hindi+-+x264+-+MP3+-+Mafiaki","amp;tr":["udp%3A%2F%2Ftracker.openbittorrent.com%3A80","udp%3A%2F%2Fopen.demonii.com%3A1337","udp%3A%2F%2Ftracker.coppersurfer.tk%3A6969","udp%3A%2F%2Fexodus.desync.com%3A6969"],"infoHash":"39ad7405fae89f06bcaecebb1d76d991e4d96c26","infoHashBuffer":{"type":"Buffer","data":[57,173,116,5,250,232,159,6,188,174,206,187,29,118,217,145,228,217,108,38]},"announce":[],"urlList":[]}}